<?xml version="1.0" encoding="UTF-8"?>
<svg width="32px" height="32px" viewBox="0 0 32 32" version="1.1" xmlns="http://www.w3.org/2000/svg" xmlns:xlink="http://www.w3.org/1999/xlink">
    <title>add</title>
    <g id="add" stroke="none" stroke-width="1" fill="none" fill-rule="evenodd">
        <g id="add-circle.5" transform="translate(6, 6)" fill-rule="nonzero">
            <path d="M10,20 C15.5228,20 20,15.5228 20,10 C20,4.47715 15.5228,0 10,0 C4.47715,0 0,4.47715 0,10 C0,15.5228 4.47715,20 10,20 Z" id="Path" fill="#FF2E63"></path>
            <path d="M14,9.25 L10.75,9.25 L10.75,6 C10.75,5.59 10.41,5.25 10,5.25 C9.59,5.25 9.25,5.59 9.25,6 L9.25,9.25 L6,9.25 C5.59,9.25 5.25,9.59 5.25,10 C5.25,10.41 5.59,10.75 6,10.75 L9.25,10.75 L9.25,14 C9.25,14.41 9.59,14.75 10,14.75 C10.41,14.75 10.75,14.41 10.75,14 L10.75,10.75 L14,10.75 C14.41,10.75 14.75,10.41 14.75,10 C14.75,9.59 14.41,9.25 14,9.25 Z" id="Path" fill="#252A34"></path>
        </g>
    </g>
</svg>