<?xml version="1.0" encoding="UTF-8"?>
<svg width="64px" height="64px" viewBox="0 0 64 64" version="1.1" xmlns="http://www.w3.org/2000/svg" xmlns:xlink="http://www.w3.org/1999/xlink">
    <title>projects</title>
    <g id="projects" stroke="none" stroke-width="1" fill="none" fill-rule="evenodd">
        <g id="3dcube.1" transform="translate(12, 12)" fill-rule="nonzero">
            <path d="M34.658187,7.32188879 L22.1186258,0.541619171 C20.798672,-0.180539724 19.198728,-0.180539724 17.8787742,0.541619171 L5.33919313,7.32188879 C4.41922533,7.82338802 3.85924493,8.78626654 3.85924493,9.88956485 C3.85924493,10.9728032 4.41922533,11.9557417 5.33919313,12.4572409 L17.8787742,19.2375306 C18.5387511,19.59861 19.2787252,19.7791498 19.9987,19.7791498 C20.7186748,19.7791498 21.4586489,19.59861 22.1186258,19.2375306 L34.658187,12.4572409 C35.5781548,11.9557417 36.1381352,10.9928632 36.1381352,9.88956485 C36.1381352,8.78626654 35.5781548,7.82338802 34.658187,7.32188879 Z" id="Path" fill="#EAEAEA"></path>
            <path d="M15.8194463,21.5849482 L4.13985511,15.7274372 C3.2398866,15.2861178 2.199923,15.3262378 1.3599524,15.847797 C0.499982501,16.3894162 0,17.2921148 0,18.2951132 L0,29.3481563 C0,31.2538534 1.0599629,32.9790108 2.7599034,33.8415894 L14.4194953,39.6991005 C14.8194813,39.8997002 15.2594659,40 15.6994505,40 C16.2194323,40 16.7394141,39.8595802 17.199398,39.5787406 C18.0593679,39.0571814 18.5593504,38.1344229 18.5593504,37.1314244 L18.5593504,26.0783813 C18.5793497,24.1526243 17.5193868,22.4274669 15.8194463,21.5849482 Z" id="Path" fill="#08D9D6"></path>
            <path d="M38.6400476,15.8470949 C37.7800777,15.3255357 36.7401141,15.2653558 35.8601449,15.7267351 L24.200553,21.5843464 C22.5006125,22.4469251 21.4406496,24.1520225 21.4406496,26.0777795 L21.4406496,37.1308226 C21.4406496,38.1338211 21.9406321,39.0565796 22.800602,39.5781388 C23.2605859,39.8589784 23.7805677,39.9993982 24.3005495,39.9993982 C24.7405341,39.9993982 25.1805187,39.8990984 25.5805047,39.6984987 L37.2400966,33.8409876 C38.9400371,32.978409 40,31.2733116 40,29.3475545 L40,18.2945114 C40,17.291513 39.5000175,16.3888144 38.6400476,15.8470949 Z" id="Path" fill="#FF2E63"></path>
        </g>
    </g>
</svg>