<?xml version="1.0" encoding="UTF-8"?>
<svg width="32px" height="32px" viewBox="0 0 32 32" version="1.1" xmlns="http://www.w3.org/2000/svg" xmlns:xlink="http://www.w3.org/1999/xlink">
    <title>comments_tab</title>
    <g id="comments_tab" stroke="none" stroke-width="1" fill="none" fill-rule="evenodd">
        <g id="message-text.3" transform="translate(5, 5)" fill="#EAEAEA" fill-rule="nonzero">
            <path d="M11,22 C10.2939535,22 9.62883721,21.6428571 9.15813953,21.0204082 L7.62325581,18.9795918 C7.59255814,18.9387755 7.46976744,18.8877551 7.41860465,18.877551 L6.90697674,18.877551 C2.64,18.877551 0,17.7244898 0,11.9897959 L0,6.8877551 C0,2.37755102 2.38418605,0 6.90697674,0 L15.0930233,0 C19.615814,0 22,2.37755102 22,6.8877551 L22,11.9897959 C22,16.5 19.615814,18.877551 15.0930233,18.877551 L14.5813953,18.877551 C14.4995349,18.877551 14.427907,18.9183673 14.3767442,18.9795918 L12.8418605,21.0204082 C12.3711628,21.6428571 11.7060465,22 11,22 Z M6.90697674,1.53061224 C3.24372093,1.53061224 1.53488372,3.23469388 1.53488372,6.8877551 L1.53488372,11.9897959 C1.53488372,16.6020408 3.12093023,17.3469388 6.90697674,17.3469388 L7.41860465,17.3469388 C7.94046512,17.3469388 8.53395349,17.6428571 8.85116279,18.0612245 L10.3860465,20.1020408 C10.744186,20.5714286 11.255814,20.5714286 11.6139535,20.1020408 L13.1488372,18.0612245 C13.4865116,17.6122449 14.0186047,17.3469388 14.5813953,17.3469388 L15.0930233,17.3469388 C18.7562791,17.3469388 20.4651163,15.6428571 20.4651163,11.9897959 L20.4651163,6.8877551 C20.4651163,3.23469388 18.7562791,1.53061224 15.0930233,1.53061224 L6.90697674,1.53061224 Z" id="Shape"></path>
            <path d="M16.1162791,7.65306122 L5.88372093,7.65306122 C5.46418605,7.65306122 5.11627907,7.30612245 5.11627907,6.8877551 C5.11627907,6.46938776 5.46418605,6.12244898 5.88372093,6.12244898 L16.1162791,6.12244898 C16.535814,6.12244898 16.8837209,6.46938776 16.8837209,6.8877551 C16.8837209,7.30612245 16.535814,7.65306122 16.1162791,7.65306122 Z" id="Path"></path>
            <path d="M12.0232558,12.755102 L5.88372093,12.755102 C5.46418605,12.755102 5.11627907,12.4081633 5.11627907,11.9897959 C5.11627907,11.5714286 5.46418605,11.2244898 5.88372093,11.2244898 L12.0232558,11.2244898 C12.4427907,11.2244898 12.7906977,11.5714286 12.7906977,11.9897959 C12.7906977,12.4081633 12.4427907,12.755102 12.0232558,12.755102 Z" id="Path"></path>
        </g>
    </g>
</svg>