<?xml version="1.0" encoding="UTF-8"?>
<svg width="64px" height="64px" viewBox="0 0 64 64" version="1.1" xmlns="http://www.w3.org/2000/svg" xmlns:xlink="http://www.w3.org/1999/xlink">
    <title>comments</title>
    <g id="comments" stroke="none" stroke-width="1" fill="none" fill-rule="evenodd">
        <g id="message-text.4" transform="translate(12, 12)" fill-rule="nonzero">
            <path d="M0,21.94 L0,9.98 C0,4.46 4.48,0 10,0 L30,0 C35.52,0 40,4.46 40,9.98 L40,23.94 C40,29.44 35.52,33.9 30,33.9 L27,33.9 C26.38,33.9 25.78,34.2 25.4,34.7 L22.4,38.68 C21.08,40.44 18.92,40.44 17.6,38.68 L14.6,34.7 C14.28,34.26 13.56,33.9 13,33.9 L10,33.9 C4.48,33.9 0,29.44 0,23.94 L0,21.94 Z" id="Path" fill="#FF2E63"></path>
            <path d="M30,13.5 L10,13.5 C9.18,13.5 8.5,12.82 8.5,12 C8.5,11.18 9.18,10.5 10,10.5 L30,10.5 C30.82,10.5 31.5,11.18 31.5,12 C31.5,12.82 30.82,13.5 30,13.5 Z" id="Path" fill="#EAEAEA"></path>
            <path d="M22,23.5 L10,23.5 C9.18,23.5 8.5,22.82 8.5,22 C8.5,21.18 9.18,20.5 10,20.5 L22,20.5 C22.82,20.5 23.5,21.18 23.5,22 C23.5,22.82 22.82,23.5 22,23.5 Z" id="Path" fill="#EAEAEA"></path>
        </g>
    </g>
</svg>