<?xml version="1.0" encoding="UTF-8"?>
<svg width="32px" height="32px" viewBox="0 0 32 32" version="1.1" xmlns="http://www.w3.org/2000/svg" xmlns:xlink="http://www.w3.org/1999/xlink">
    <title>completed</title>
    <g id="completed" stroke="none" stroke-width="1" fill="none" fill-rule="evenodd">
        <g id="library-add-check-outlined-24px" transform="translate(4, 4)">
            <path d="M20,4 L20,16 L8,16 L8,4 L20,4 M20,2 L8,2 C6.9,2 6,2.9 6,4 L6,16 C6,17.1 6.9,18 8,18 L20,18 C21.1,18 22,17.1 22,16 L22,4 C22,2.9 21.1,2 20,2 L20,2 Z M12.47,14 L9,10.5 L10.4,9.09 L12.47,11.17 L17.6,6 L19,7.41 L12.47,14 Z M4,6 L2,6 L2,20 C2,21.1 2.9,22 4,22 L18,22 L18,20 L4,20 L4,6 Z" id="Shape" fill="#EAEAEA" fill-rule="nonzero"></path>
            <polygon id="Path" points="0 0 24 0 24 24 0 24"></polygon>
        </g>
    </g>
</svg>