<?xml version="1.0" encoding="UTF-8"?>
<svg width="32px" height="32px" viewBox="0 0 32 32" version="1.1" xmlns="http://www.w3.org/2000/svg" xmlns:xlink="http://www.w3.org/1999/xlink">
    <title>home</title>
    <g id="home" stroke="none" stroke-width="1" fill="none" fill-rule="evenodd">
        <g id="home-1.3" transform="translate(5, 5)" fill="#EAEAEA" fill-rule="nonzero">
            <path d="M16.3518572,21.1349924 L5.1518072,21.1349924 C3.3317972,21.1349924 1.6718072,19.7349924 1.3718072,17.9349924 L0.041797203,9.9750924 C-0.168202797,8.7350924 0.431807203,7.1450624 1.4218072,6.3550624 L8.3518172,0.805012396 C9.6918572,-0.274987604 11.8017572,-0.264977604 13.1517572,0.815022396 L20.0818572,6.3550624 C21.0618572,7.1450624 21.6618572,8.7350924 21.4618572,9.9750924 L20.1318572,17.9349924 C19.8318572,19.7049924 18.1418572,21.1349924 16.3518572,21.1349924 Z M10.7418572,1.5150324 C10.2118572,1.5150324 9.6817572,1.6750024 9.2917572,1.9850024 L2.3618072,7.5350524 C1.7918072,7.9950524 1.4018172,9.0149924 1.5218172,9.7349924 L2.8518172,17.6949924 C3.0318172,18.7449924 4.0817972,19.6349924 5.1518072,19.6349924 L16.3518572,19.6349924 C17.4218572,19.6349924 18.4717572,18.7449924 18.6517572,17.6849924 L19.9817572,9.7250924 C20.1017572,9.0050924 19.7018572,7.9750424 19.1418572,7.5250424 L12.2118572,1.9850024 C11.8118572,1.6750024 11.2818572,1.5150324 10.7418572,1.5150324 Z" id="Shape"></path>
            <path d="M10.7519572,14.8251924 C8.9619572,14.8251924 7.5019572,13.3651924 7.5019572,11.5751924 C7.5019572,9.7851924 8.9619572,8.3251924 10.7519572,8.3251924 C12.5419572,8.3251924 14.0019572,9.7851924 14.0019572,11.5751924 C14.0019572,13.3651924 12.5419572,14.8251924 10.7519572,14.8251924 Z M10.7519572,9.8251924 C9.7919572,9.8251924 9.0019572,10.6151924 9.0019572,11.5751924 C9.0019572,12.5351924 9.7919572,13.3251924 10.7519572,13.3251924 C11.7119572,13.3251924 12.5019572,12.5351924 12.5019572,11.5751924 C12.5019572,10.6151924 11.7119572,9.8251924 10.7519572,9.8251924 Z" id="Shape"></path>
        </g>
    </g>
</svg>