<?xml version="1.0" encoding="UTF-8"?>
<svg width="64px" height="64px" viewBox="0 0 64 64" version="1.1" xmlns="http://www.w3.org/2000/svg" xmlns:xlink="http://www.w3.org/1999/xlink">
    <title>labels</title>
    <g id="labels" stroke="none" stroke-width="1" fill="none" fill-rule="evenodd">
        <g id="hashtag-down.2" transform="translate(11, 11)" fill-rule="nonzero">
            <path d="M37.94,28 L32.06,28 C29.52,28 28,29.52 28,32.06 L28,37.94 C28,40.48 29.52,42 32.06,42 L37.94,42 C40.48,42 42,40.48 42,37.94 L42,32.06 C42,29.52 40.48,28 37.94,28 Z M38.38,34.62 C38.14,34.86 37.82,34.98 37.5,34.98 C37.18,34.98 36.86,34.86 36.62,34.62 L36.26,34.26 L36.26,38.74 C36.26,39.44 35.7,40 35,40 C34.3,40 33.74,39.44 33.74,38.74 L33.74,34.26 L33.38,34.62 C32.9,35.1 32.1,35.1 31.62,34.62 C31.14,34.14 31.14,33.34 31.62,32.86 L34.12,30.36 C34.22,30.26 34.36,30.18 34.5,30.12 C34.54,30.1 34.58,30.1 34.62,30.08 C34.72,30.04 34.82,30.02 34.94,30.02 C34.98,30.02 35.02,30.02 35.06,30.02 C35.2,30.02 35.32,30.04 35.46,30.1 C35.48,30.1 35.48,30.1 35.5,30.1 C35.64,30.16 35.76,30.24 35.86,30.34 C35.88,30.36 35.88,30.36 35.9,30.36 L38.4,32.86 C38.88,33.34 38.88,34.14 38.38,34.62 Z" id="Shape" fill="#FF2E63"></path>
            <path d="M28,37.94 L28,32.06 C28,29.52 29.52,28 32.06,28 L37.94,28 C38.74,28 39.42,28.16 40,28.44 C40,28.42 40,28.4 40,28.36 L40,11.62 C40,4.34 35.66,0 28.38,0 L11.62,0 C4.34,0 0,4.34 0,11.62 L0,28.36 C0,35.66 4.34,40 11.62,40 L28.36,40 C28.38,40 28.4,40 28.44,40 C28.16,39.42 28,38.74 28,37.94 Z" id="Path" fill="#08D9D6"></path>
            <path d="M28,16.3402 C28.82,16.3402 29.5,15.6602 29.5,14.8402 C29.5,14.0202 28.82,13.3402 28,13.3402 L23.18,13.3402 L23.7,8.7002 C23.8,7.8802 23.2,7.1402 22.38,7.0402 C21.56,6.9602 20.82,7.5402 20.72,8.3602 L20.16,13.3402 L16.86,13.3402 L17.38,8.7002 C17.48,7.8802 16.88,7.1402 16.06,7.0402 C15.24,6.9402 14.5,7.5402 14.4,8.3602 L13.84,13.3402 L9.04,13.3402 C8.22,13.3402 7.54,14.0202 7.54,14.8402 C7.54,15.6602 8.22,16.3402 9.04,16.3402 L13.5,16.3402 L13.14,19.6602 L8,19.6602 C7.18,19.6602 6.5,20.3402 6.5,21.1602 C6.5,21.9802 7.18,22.6602 8,22.6602 L12.82,22.6602 L12.3,27.3002 C12.2,28.1202 12.8,28.8602 13.62,28.9602 C13.68,28.9602 13.74,28.9602 13.78,28.9602 C14.54,28.9602 15.18,28.4002 15.26,27.6202 L15.82,22.6402 L19.12,22.6402 L18.6,27.2802 C18.5,28.1002 19.1,28.8402 19.92,28.9402 C19.98,28.9402 20.04,28.9402 20.08,28.9402 C20.84,28.9402 21.48,28.3802 21.56,27.6002 L22.12,22.6202 L26.92,22.6202 C27.74,22.6202 28.42,21.9402 28.42,21.1202 C28.42,20.3002 27.74,19.6202 26.92,19.6202 L22.46,19.6202 L22.82,16.3002 L28,16.3002 L28,16.3402 Z M19.46,19.6602 L16.16,19.6602 L16.52,16.3402 L19.82,16.3402 L19.46,19.6602 Z" id="Shape" fill="#252A34"></path>
        </g>
    </g>
</svg>