<?xml version="1.0" encoding="UTF-8"?>
<svg width="96px" height="96px" viewBox="0 0 96 96" version="1.1" xmlns="http://www.w3.org/2000/svg" xmlns:xlink="http://www.w3.org/1999/xlink">
    <title>192x192@1x</title>
    <g id="192x192" stroke="none" stroke-width="1" fill="none" fill-rule="evenodd">
        <g id="calendar-add.1" transform="translate(18, 15)" fill-rule="nonzero">
            <path d="M41.2506,7.00965517 L41.2506,2.27586207 C41.2506,1.03172414 40.2306,0 39.0006,0 C37.7706,0 36.7506,1.03172414 36.7506,2.27586207 L36.7506,6.82758621 L17.25072,6.82758621 L17.25072,2.27586207 C17.25072,1.03172414 16.23072,0 15.00072,0 C13.77072,0 12.75072,1.03172414 12.75072,2.27586207 L12.75072,7.00965517 C4.65072,7.76827586 0.72069,12.6537931 0.12069,19.9062069 C0.06069,20.7862069 0.78069,21.5144828 1.62069,21.5144828 L52.3806,21.5144828 C53.2506,21.5144828 53.9706,20.7558621 53.8806,19.9062069 C53.2806,12.6537931 49.3506,7.76827586 41.2506,7.00965517 Z" id="Path" fill="#FF2E63"></path>
            <path d="M54,29.1009931 L54,34.3809931 C54,36.2320276 52.38,37.6582345 50.58,37.3547862 C49.74,37.2334069 48.87,37.1423724 48,37.1423724 C38.91,37.1423724 31.5,44.6375448 31.5,53.8320276 C31.5,55.2278897 32.04,57.1699586 32.61,58.9299586 C33.27,60.9023724 31.83,62.9354759 29.76,62.9354759 L15,62.9354759 C4.5,62.9354759 0,56.8665103 0,47.7630621 L0,29.0706483 C0,27.4016828 1.35,26.0361048 3,26.0361048 L51,26.0361048 C52.65,26.0664497 54,27.4320276 54,29.1009931 Z" id="Path" fill="#252A34"></path>
            <path d="M16.5,41.7238345 C15.72,41.7238345 14.94,41.3900414 14.37,40.8438345 C13.83,40.2672828 13.5,39.4783172 13.5,38.6893517 C13.5,37.9003862 13.83,37.1114207 14.37,36.534869 C15.06,35.8369379 16.11,35.5031448 17.1,35.7155586 C17.28,35.7459034 17.46,35.8065931 17.64,35.8976276 C17.82,35.9583172 18,36.0493517 18.18,36.170731 C18.33,36.2921103 18.48,36.4134897 18.63,36.534869 C19.17,37.1114207 19.5,37.9003862 19.5,38.6893517 C19.5,39.4783172 19.17,40.2672828 18.63,40.8438345 C18.48,40.9652138 18.33,41.0865931 18.18,41.2079724 C18,41.3293517 17.82,41.4203862 17.64,41.4810759 C17.46,41.5721103 17.28,41.6328 17.1,41.6631448 C16.89,41.6934897 16.68,41.7238345 16.5,41.7238345 Z" id="Path" fill="#FF2E63"></path>
            <path d="M27,41.7247448 C26.22,41.7247448 25.44,41.3909517 24.87,40.8447448 C24.33,40.2681931 24,39.4792276 24,38.6902621 C24,37.9012966 24.33,37.112331 24.87,36.5357793 C26.01,35.4130207 28.02,35.4130207 29.13,36.5357793 C29.67,37.112331 30,37.9012966 30,38.6902621 C30,39.4792276 29.67,40.2681931 29.13,40.8447448 C28.56,41.3909517 27.78,41.7247448 27,41.7247448 Z" id="Path" fill="#FF2E63"></path>
            <path d="M16.5,52.3445241 C15.72,52.3445241 14.94,52.010731 14.37,51.4645241 C13.83,50.8879724 13.5,50.0990069 13.5,49.3100414 C13.5,48.5210759 13.83,47.7321103 14.37,47.1555586 C14.67,46.8824552 14.97,46.6700414 15.36,46.5183172 C16.47,46.0328 17.79,46.3059034 18.63,47.1555586 C19.17,47.7321103 19.5,48.5210759 19.5,49.3100414 C19.5,50.0990069 19.17,50.8879724 18.63,51.4645241 C18.06,52.010731 17.28,52.3445241 16.5,52.3445241 Z" id="Path" fill="#FF2E63"></path>
            <path d="M56.49,45.2744828 C51.81,40.5406897 44.19,40.5406897 39.51,45.2744828 C34.83,50.0082759 34.83,57.7158621 39.51,62.4496552 C44.19,67.1834483 51.81,67.1834483 56.49,62.4496552 C61.17,57.7158621 61.17,50.0082759 56.49,45.2744828 Z" id="Shape" fill="#FF2E63"></path>
        </g>
        <g id="sync-24px" transform="translate(54, 57)">
            <polygon id="Path" points="0 0 24 0 24 24 0 24"></polygon>
            <path d="M12,4 L12,1 L8,5 L12,9 L12,6 C15.31,6 18,8.69 18,12 C18,13.01 17.75,13.97 17.3,14.8 L18.76,16.26 C19.54,15.03 20,13.57 20,12 C20,7.58 16.42,4 12,4 Z M12,18 C8.69,18 6,15.31 6,12 C6,10.99 6.25,10.03 6.7,9.2 L5.24,7.74 C4.46,8.97 4,10.43 4,12 C4,16.42 7.58,20 12,20 L12,23 L16,19 L12,15 L12,18 Z" id="Shape" fill="#252A34" fill-rule="nonzero"></path>
        </g>
    </g>
</svg>