<?xml version="1.0" encoding="UTF-8"?>
<svg width="32px" height="32px" viewBox="0 0 32 32" version="1.1" xmlns="http://www.w3.org/2000/svg" xmlns:xlink="http://www.w3.org/1999/xlink">
    <title>notification_empty</title>
    <g id="notification_empty" stroke="none" stroke-width="1" fill="none" fill-rule="evenodd">
        <g id="notification.1" transform="translate(7, 5)" fill="#EAEAEA" fill-rule="nonzero">
            <path d="M8.79333663,19.35021 C6.46330663,19.35021 4.13330663,18.98021 1.92330663,18.24021 C1.08330663,17.95021 0.443306631,17.36021 0.163306631,16.59021 C-0.126693369,15.82021 -0.0266933687,14.97021 0.433306631,14.21021 L1.58330663,12.30021 C1.82330663,11.90021 2.04330663,11.10021 2.04330663,10.63021 L2.04330663,7.74023 C2.04330663,4.02023 5.07330663,0.99023 8.79333663,0.99023 C12.5133366,0.99023 15.5433366,4.02023 15.5433366,7.74023 L15.5433366,10.63021 C15.5433366,11.09021 15.7633366,11.90021 16.0033366,12.31021 L17.1433366,14.21021 C17.5733366,14.93021 17.6533366,15.80021 17.3633366,16.59021 C17.0733366,17.38021 16.4433366,17.98021 15.6533366,18.24021 C13.4533366,18.98021 11.1233366,19.35021 8.79333663,19.35021 Z M8.79333663,2.49023 C5.90330663,2.49023 3.54330663,4.84023 3.54330663,7.74023 L3.54330663,10.63021 C3.54330663,11.36021 3.24330663,12.44021 2.87330663,13.07021 L1.72330663,14.98021 C1.50330663,15.35021 1.44330663,15.74021 1.57330663,16.07021 C1.69330663,16.41021 1.99330663,16.67021 2.40330663,16.81021 C6.58330663,18.21021 11.0133366,18.21021 15.1933366,16.81021 C15.5533366,16.69021 15.8333366,16.42021 15.9633366,16.06021 C16.0933366,15.70021 16.0633366,15.31021 15.8633366,14.98021 L14.7133366,13.07021 C14.3333366,12.42021 14.0433366,11.35021 14.0433366,10.62021 L14.0433366,7.74023 C14.0433366,4.84023 11.6933366,2.49023 8.79333663,2.49023 Z" id="Shape"></path>
            <path d="M10.6530366,2.76 C10.5830366,2.76 10.5130366,2.75 10.4430366,2.73 C10.1530366,2.65 9.87303663,2.59 9.60303663,2.55 C8.75303663,2.44 7.93303663,2.5 7.16303663,2.73 C6.88303663,2.82 6.58306663,2.73 6.39306663,2.52 C6.20306663,2.31 6.14306663,2.01 6.25306663,1.74 C6.66306663,0.69 7.66303663,8.8817842e-16 8.80303663,8.8817842e-16 C9.94303663,8.8817842e-16 10.9430366,0.68 11.3530366,1.74 C11.4530366,2.01 11.4030366,2.31 11.2130366,2.52 C11.0630366,2.68 10.8530366,2.76 10.6530366,2.76 Z" id="Path"></path>
            <path d="M8.79293663,21.62991 C7.80293663,21.62991 6.84293663,21.22991 6.14296663,20.52991 C5.44296663,19.82991 5.04296663,18.86991 5.04296663,17.87991 L6.54296663,17.87991 C6.54296663,18.46991 6.78293663,19.04991 7.20293663,19.46991 C7.62293663,19.88991 8.20293663,20.12991 8.79293663,20.12991 C10.0329366,20.12991 11.0429366,19.11991 11.0429366,17.87991 L12.5429366,17.87991 C12.5429366,19.94991 10.8629366,21.62991 8.79293663,21.62991 Z" id="Path"></path>
        </g>
    </g>
</svg>