<?xml version="1.0" encoding="UTF-8"?>
<svg width="64px" height="64px" viewBox="0 0 64 64" version="1.1" xmlns="http://www.w3.org/2000/svg" xmlns:xlink="http://www.w3.org/1999/xlink">
    <title>personal_labels</title>
    <g id="personal_labels" stroke="none" stroke-width="1" fill="none" fill-rule="evenodd">
        <g id="hashtag-1.1" transform="translate(12, 12)" fill-rule="nonzero">
            <path d="M28.3941482,0 L11.6257929,0 C4.34216361,0 0,4.34 0,11.62 L0,28.36 C0,35.66 4.34216361,40 11.6257929,40 L28.3741382,40 C35.6577675,40 40,35.66 40,28.38 L40,11.62 C40.0199411,4.34 35.6777775,0 28.3941482,0 Z" id="Path" fill="#08D9D6"></path>
            <path d="M33.6551697,17.1598 C34.4555685,17.1598 35.1158975,16.5 35.1158975,15.6999 C35.1158975,14.8999 34.4555685,14.2399 33.6551697,14.2399 L26.4315703,14.2399 L27.2119592,7.2399 C27.291999,6.4399 26.7317199,5.7199 25.9113111,5.6199 C25.1109122,5.5399 24.3905533,6.0999 24.2905035,6.9199 L23.4700947,14.2399 L17.807273,14.2399 L18.5876618,7.2399 C18.6677017,6.4399 18.1074226,5.7199 17.2870138,5.6199 C16.4866149,5.5399 15.766296,6.0999 15.6662462,6.9199 L14.8658473,14.2399 L7.80232774,14.2399 C7.00192892,14.2399 6.34159989,14.8999 6.34159989,15.6999 C6.34159989,16.5 7.00192892,17.1598 7.80232774,17.1598 L14.5456878,17.1598 L13.9053688,22.86 L6.36160986,22.86 C5.56121104,22.86 4.90088201,23.52 4.90088201,24.32 C4.90088201,25.1198 5.56121104,25.78 6.36160986,25.78 L13.5852092,25.78 L12.8048204,32.7798 C12.7247805,33.5798 13.2850597,34.3 14.1054685,34.4 C14.1654984,34.4 14.2055183,34.4 14.2655482,34.4 C15.0059171,34.4 15.6262262,33.8398 15.7262761,33.0998 L16.5466449,25.78 L22.2294765,25.78 L21.4490876,32.7798 C21.3690478,33.5798 21.9293269,34.3 22.7497357,34.4 C22.8097656,34.4 22.8497856,34.4 22.9098155,34.4 C23.6501844,34.4 24.2704935,33.8398 24.3705433,33.0998 L25.1909521,25.78 L32.2544717,25.78 C33.0548706,25.78 33.7151996,25.1198 33.7151996,24.32 C33.7151996,23.52 33.0548706,22.86 32.2544717,22.86 L25.5111117,22.86 L26.1514307,17.1598 L33.6551697,17.1598 Z M22.529626,22.84 L16.8467944,22.84 L17.4871135,17.1398 L23.1699451,17.1398 L22.529626,22.84 Z" id="Shape" fill="#252A34"></path>
        </g>
    </g>
</svg>