<?xml version="1.0" encoding="UTF-8"?>
<svg width="64px" height="64px" viewBox="0 0 64 64" version="1.1" xmlns="http://www.w3.org/2000/svg" xmlns:xlink="http://www.w3.org/1999/xlink">
    <title>comments copy</title>
    <g id="comments-copy" stroke="none" stroke-width="1" fill="none" fill-rule="evenodd">
        <g id="magic-star.1" transform="translate(12, 12)" fill-rule="nonzero">
            <path d="M30.2899186,4.32626904 L30.1503212,11.9987875 C30.1303787,13.0514814 30.7886802,14.4483251 31.6262648,15.0758926 L36.572002,18.8818262 C39.7428577,21.3111196 39.224353,24.2870041 35.4352801,25.5016508 L28.9938562,27.5463062 C27.9169618,27.8904561 26.78024,29.0848587 26.5010451,30.1982849 L24.9654735,36.1500538 C23.7489817,40.8466878 20.7175239,41.3123024 18.2047703,37.1825035 L14.6949721,31.4129316 C14.0568124,30.3602377 12.5411833,29.5707174 11.3446339,29.6314497 L4.68392245,29.9755996 C-0.0823323852,30.218529 -1.43844157,27.4248415 1.67258669,23.7404131 L5.62115959,19.0842673 C6.35903168,18.2137705 6.69803405,16.5942415 6.35901174,15.5010392 L4.34492008,8.96217072 C3.16831324,5.11578941 5.28219711,2.99017788 9.0513275,4.24531283 L14.9343817,6.20899171 C15.931526,6.53289751 17.4272127,6.31019203 18.2647972,5.68262455 L24.4070838,1.18843165 C27.7175369,-1.2408618 30.3696885,0.176226047 30.2899186,4.32626904 Z" id="Path" fill="#FF2E63"></path>
            <path d="M38.5662509,37.3853495 L32.5236767,31.2513836 C31.9453446,30.6643043 30.9881051,30.6643043 30.4097729,31.2513836 C29.8314408,31.8384628 29.8314408,32.8101802 30.4097729,33.3972595 L36.4523471,39.5312254 C36.7514844,39.8348871 37.1303917,39.9765959 37.509299,39.9765959 C37.8882062,39.9765959 38.2671135,39.8348871 38.5662509,39.5312254 C39.144583,38.9441462 39.144583,37.9724288 38.5662509,37.3853495 Z" id="Path" fill="#08D9D6" opacity="0.4"></path>
        </g>
    </g>
</svg>