<?xml version="1.0" encoding="UTF-8"?>
<svg width="32px" height="32px" viewBox="0 0 32 32" version="1.1" xmlns="http://www.w3.org/2000/svg" xmlns:xlink="http://www.w3.org/1999/xlink">
    <title>projects</title>
    <g id="projects" stroke="none" stroke-width="1" fill="none" fill-rule="evenodd">
        <g id="3dcube" transform="translate(5, 5)" fill="#EAEAEA" fill-rule="nonzero">
            <path d="M10.75,10.9625 C10.31,10.9625 9.87,10.8525 9.47,10.6425 L2.96,7.1325 C2.37,6.8125 2,6.1825 2,5.4825 C2,4.7825 2.37,4.1525 2.96,3.8325 L9.47,0.3225 C10.27,-0.1075 11.23,-0.1075 12.02,0.3225 L18.53,3.8325 C19.12,4.1525 19.49,4.7825 19.49,5.4825 C19.49,6.1825 19.12,6.8125 18.53,7.1325 L12.02,10.6425 C11.63,10.8625 11.19,10.9625 10.75,10.9625 Z M10.75,1.4925 C10.56,1.4925 10.36,1.5425 10.18,1.6425 L3.68,5.1425 C3.51,5.2325 3.5,5.4225 3.5,5.4825 C3.5,5.5425 3.51,5.7325 3.68,5.8125 L10.19,9.3225 C10.55,9.5125 10.96,9.5125 11.32,9.3225 L17.83,5.8125 C17.99,5.7225 18.01,5.5325 18.01,5.4825 C18.01,5.4225 18,5.2325 17.83,5.1525 L11.32,1.6425 C11.14,1.5425 10.94,1.4925 10.75,1.4925 Z" id="Shape"></path>
            <path d="M8.53,21.4327 C8.25,21.4327 7.96,21.3627 7.7,21.2327 L1.64,18.2127 C0.63,17.7027 0,16.6827 0,15.5527 L0,9.8327 C0,9.1827 0.33,8.59266 0.88,8.25266 C1.44,7.91266 2.11,7.88266 2.69,8.17266 L8.75,11.1927 C9.76,11.7027 10.39,12.7127 10.39,13.8527 L10.39,19.5727 C10.39,20.2227 10.06,20.8127 9.51,21.1527 C9.21,21.3427 8.87,21.4327 8.53,21.4327 Z M1.86,9.4727 C1.78,9.4727 1.71,9.5027 1.67,9.5227 C1.61,9.5627 1.5,9.6527 1.5,9.8327 L1.5,15.5527 C1.5,16.1127 1.81,16.6227 2.31,16.8727 L8.36,19.9027 C8.52,19.9827 8.65,19.9227 8.71,19.8927 C8.77,19.8527 8.88,19.7627 8.88,19.5827 L8.88,13.8627 C8.88,13.3027 8.57,12.7927 8.07,12.5427 L2.02,9.5127 C1.96,9.4827 1.91,9.4727 1.86,9.4727 Z" id="Shape"></path>
            <path d="M12.9694,21.4324 C12.6294,21.4324 12.2894,21.3424 11.9894,21.1524 C11.4394,20.8124 11.1094,20.2224 11.1094,19.5724 L11.1094,13.8524 C11.1094,12.7224 11.7394,11.7024 12.7494,11.1924 L18.7994,8.1624 C19.3794,7.8724 20.0594,7.9024 20.6094,8.2424 C21.1594,8.5824 21.4894,9.1724 21.4894,9.8224 L21.4894,15.5424 C21.4894,16.6724 20.8594,17.6924 19.8494,18.2024 L13.7994,21.2324 C13.5394,21.3724 13.2494,21.4324 12.9694,21.4324 Z M19.6394,9.4724 C19.5894,9.4724 19.5394,9.4824 19.4794,9.5124 L13.4294,12.5424 C12.9294,12.7924 12.6194,13.2924 12.6194,13.8624 L12.6194,19.5824 C12.6194,19.7624 12.7294,19.8524 12.7894,19.8924 C12.8494,19.9324 12.9794,19.9824 13.1394,19.9024 L19.1894,16.8724 C19.6894,16.6224 19.9994,16.1124 19.9994,15.5524 L19.9994,9.8324 C19.9994,9.6524 19.8894,9.5624 19.8294,9.5224 C19.7894,9.5024 19.7194,9.4724 19.6394,9.4724 Z" id="Shape"></path>
        </g>
    </g>
</svg>