<?xml version="1.0" encoding="UTF-8"?>
<svg width="32px" height="32px" viewBox="0 0 32 32" version="1.1" xmlns="http://www.w3.org/2000/svg" xmlns:xlink="http://www.w3.org/1999/xlink">
    <title>completed copy</title>
    <g id="completed-copy" stroke="none" stroke-width="1" fill="none" fill-rule="evenodd">
        <g id="clipboard-import.4" transform="translate(6, 5)" fill="#EAEAEA" fill-rule="nonzero">
            <path d="M11.75,5.5 L7.75,5.5 C6.79,5.5 5,5.5 5,2.75 C5,0 6.79,0 7.75,0 L11.75,0 C12.71,0 14.5,0 14.5,2.75 C14.5,3.71 14.5,5.5 11.75,5.5 Z M7.75,1.5 C6.76,1.5 6.5,1.5 6.5,2.75 C6.5,4 6.76,4 7.75,4 L11.75,4 C13,4 13,3.74 13,2.75 C13,1.5 12.74,1.5 11.75,1.5 L7.75,1.5 Z" id="Shape"></path>
            <path d="M11.75,21.5002 L6.75,21.5002 C1.13,21.5002 0,18.9202 0,14.7502 L0,8.7502 C0,4.19021 1.65,2.24021 5.71,2.03021 C6.11,2.01021 6.48,2.32021 6.5,2.74021 C6.52,3.16021 6.2,3.50021 5.79,3.52021 C2.95,3.68021 1.5,4.53021 1.5,8.7502 L1.5,14.7502 C1.5,18.4502 2.23,20.0002 6.75,20.0002 L11.75,20.0002 C12.16,20.0002 12.5,20.3402 12.5,20.7502 C12.5,21.1602 12.16,21.5002 11.75,21.5002 Z" id="Path"></path>
            <path d="M18.7509,14.5004 C18.3409,14.5004 18.0009,14.1604 18.0009,13.7504 L18.0009,8.7504 C18.0009,4.53042 16.5509,3.68042 13.7109,3.52042 C13.3009,3.50042 12.9809,3.14042 13.0009,2.73042 C13.0209,2.32042 13.3909,2.00042 13.7909,2.02042 C17.8509,2.24042 19.5009,4.19042 19.5009,8.74042 L19.5009,13.7404 C19.5009,14.1604 19.1609,14.5004 18.7509,14.5004 Z" id="Path"></path>
            <path d="M18.75,21.5 L15.75,21.5 C15.34,21.5 15,21.16 15,20.75 C15,20.34 15.34,20 15.75,20 L18,20 L18,17.75 C18,17.34 18.34,17 18.75,17 C19.16,17 19.5,17.34 19.5,17.75 L19.5,20.75 C19.5,21.16 19.16,21.5 18.75,21.5 Z" id="Path"></path>
            <path d="M18.7095,21.4604 C18.5195,21.4604 18.3295,21.3904 18.1795,21.2404 L12.2195,15.2804 C11.9295,14.9904 11.9295,14.5104 12.2195,14.2204 C12.5095,13.9304 12.9895,13.9304 13.2795,14.2204 L19.2395,20.1804 C19.5295,20.4704 19.5295,20.9504 19.2395,21.2404 C19.0895,21.3804 18.8995,21.4604 18.7095,21.4604 Z" id="Path"></path>
        </g>
    </g>
</svg>