<?xml version="1.0" encoding="UTF-8"?>
<svg width="32px" height="32px" viewBox="0 0 32 32" version="1.1" xmlns="http://www.w3.org/2000/svg" xmlns:xlink="http://www.w3.org/1999/xlink">
    <title>settings</title>
    <g id="settings" stroke="none" stroke-width="1" fill="none" fill-rule="evenodd">
        <g id="setting-2.4" transform="translate(5, 6)" fill="#EAEAEA" fill-rule="nonzero">
            <path d="M10.75,13.9379865 C8.68,13.9379865 7,12.2579865 7,10.1879865 C7,8.11798646 8.68,6.43798646 10.75,6.43798646 C12.82,6.43798646 14.5,8.11798646 14.5,10.1879865 C14.5,12.2579865 12.82,13.9379865 10.75,13.9379865 Z M10.75,7.93798646 C9.51,7.93798646 8.5,8.94798646 8.5,10.1879865 C8.5,11.4279865 9.51,12.4379865 10.75,12.4379865 C11.99,12.4379865 13,11.4279865 13,10.1879865 C13,8.94798646 11.99,7.93798646 10.75,7.93798646 Z" id="Shape"></path>
            <path d="M13.96,20.3777865 C13.75,20.3777865 13.54,20.3477865 13.33,20.2977865 C12.71,20.1277865 12.19,19.7377865 11.86,19.1877865 L11.74,18.9877865 C11.15,17.9677865 10.34,17.9677865 9.75,18.9877865 L9.64,19.1777865 C9.31,19.7377865 8.79,20.1377865 8.17,20.2977865 C7.54,20.4677865 6.89,20.3777865 6.34,20.0477865 L4.62,19.0577865 C4.01,18.7077865 3.57,18.1377865 3.38,17.4477865 C3.2,16.7577865 3.29,16.0477865 3.64,15.4377865 C3.93,14.9277865 4.01,14.4677865 3.84,14.1777865 C3.67,13.8877865 3.24,13.7177865 2.65,13.7177865 C1.19,13.7177865 0,12.5277865 0,11.0677865 L0,9.30778646 C0,7.84778646 1.19,6.65778646 2.65,6.65778646 C3.24,6.65778646 3.67,6.48778646 3.84,6.19778646 C4.01,5.90778646 3.94,5.44778646 3.64,4.93778646 C3.29,4.32778646 3.2,3.60778646 3.38,2.92778646 C3.56,2.23778646 4,1.66778646 4.62,1.31778646 L6.35,0.327786457 C7.48,-0.342213543 8.97,0.0477864568 9.65,1.19778646 L9.77,1.39778646 C10.36,2.41778646 11.17,2.41778646 11.76,1.39778646 L11.87,1.20778646 C12.55,0.0477864568 14.04,-0.342213543 15.18,0.337786457 L16.9,1.32778646 C17.51,1.67778646 17.95,2.24778646 18.14,2.93778646 C18.32,3.62778646 18.23,4.33778646 17.88,4.94778646 C17.59,5.45778646 17.51,5.91778646 17.68,6.20778646 C17.85,6.49778646 18.28,6.66778646 18.87,6.66778646 C20.33,6.66778646 21.52,7.85778646 21.52,9.31778646 L21.52,11.0777865 C21.52,12.5377865 20.33,13.7277865 18.87,13.7277865 C18.28,13.7277865 17.85,13.8977865 17.68,14.1877865 C17.51,14.4777865 17.58,14.9377865 17.88,15.4477865 C18.23,16.0577865 18.33,16.7777865 18.14,17.4577865 C17.96,18.1477865 17.52,18.7177865 16.9,19.0677865 L15.17,20.0577865 C14.79,20.2677865 14.38,20.3777865 13.96,20.3777865 Z M10.75,16.6777865 C11.64,16.6777865 12.47,17.2377865 13.04,18.2277865 L13.15,18.4177865 C13.27,18.6277865 13.47,18.7777865 13.71,18.8377865 C13.95,18.8977865 14.19,18.8677865 14.39,18.7477865 L16.12,17.7477865 C16.38,17.5977865 16.58,17.3477865 16.66,17.0477865 C16.74,16.7477865 16.7,16.4377865 16.55,16.1777865 C15.98,15.1977865 15.91,14.1877865 16.35,13.4177865 C16.79,12.6477865 17.7,12.2077865 18.84,12.2077865 C19.48,12.2077865 19.99,11.6977865 19.99,11.0577865 L19.99,9.29778646 C19.99,8.66778646 19.48,8.14778646 18.84,8.14778646 C17.7,8.14778646 16.79,7.70778646 16.35,6.93778646 C15.91,6.16778646 15.98,5.15778646 16.55,4.17778646 C16.7,3.91778646 16.74,3.60778646 16.66,3.30778646 C16.58,3.00778646 16.39,2.76778646 16.13,2.60778646 L14.4,1.61778646 C13.97,1.35778646 13.4,1.50778646 13.14,1.94778646 L13.03,2.13778646 C12.46,3.12778646 11.63,3.68778646 10.74,3.68778646 C9.85,3.68778646 9.02,3.12778646 8.45,2.13778646 L8.34,1.93778646 C8.09,1.51778646 7.53,1.36778646 7.1,1.61778646 L5.37,2.61778646 C5.11,2.76778646 4.91,3.01778646 4.83,3.31778646 C4.75,3.61778646 4.79,3.92778646 4.94,4.18778646 C5.51,5.16778646 5.58,6.17778646 5.14,6.94778646 C4.7,7.71778646 3.79,8.15778646 2.65,8.15778646 C2.01,8.15778646 1.5,8.66778646 1.5,9.30778646 L1.5,11.0677865 C1.5,11.6977865 2.01,12.2177865 2.65,12.2177865 C3.79,12.2177865 4.7,12.6577865 5.14,13.4277865 C5.58,14.1977865 5.51,15.2077865 4.94,16.1877865 C4.79,16.4477865 4.75,16.7577865 4.83,17.0577865 C4.91,17.3577865 5.1,17.5977865 5.36,17.7577865 L7.09,18.7477865 C7.3,18.8777865 7.55,18.9077865 7.78,18.8477865 C8.02,18.7877865 8.22,18.6277865 8.35,18.4177865 L8.46,18.2277865 C9.03,17.2477865 9.86,16.6777865 10.75,16.6777865 Z" id="Shape"></path>
        </g>
    </g>
</svg>