<?xml version="1.0" encoding="UTF-8"?>
<svg width="32px" height="32px" viewBox="0 0 32 32" version="1.1" xmlns="http://www.w3.org/2000/svg" xmlns:xlink="http://www.w3.org/1999/xlink">
    <title>start_timer</title>
    <g id="start_timer" stroke="none" stroke-width="1" fill="none" fill-rule="evenodd">
        <g id="timer-start.1" transform="translate(6, 5)" fill="#EAEAEA" fill-rule="nonzero">
            <path d="M9.5,12.5 C9.09,12.5 8.75,12.16 8.75,11.75 L8.75,6.75 C8.75,6.34 9.09,6 9.5,6 C9.91,6 10.25,6.34 10.25,6.75 L10.25,11.75 C10.25,12.16 9.91,12.5 9.5,12.5 Z" id="Path"></path>
            <path d="M9.5,21.5 C4.26,21.5 0,17.24 0,12 C0,6.76 4.26,2.5 9.5,2.5 C14.74,2.5 19,6.76 19,12 C19,12.41 18.66,12.75 18.25,12.75 C17.84,12.75 17.5,12.41 17.5,12 C17.5,7.59 13.91,4 9.5,4 C5.09,4 1.5,7.59 1.5,12 C1.5,16.41 5.09,20 9.5,20 C9.91,20 10.25,20.34 10.25,20.75 C10.25,21.16 9.91,21.5 9.5,21.5 Z" id="Path"></path>
            <path d="M12.5,1.5 L6.5,1.5 C6.09,1.5 5.75,1.16 5.75,0.75 C5.75,0.34 6.09,0 6.5,0 L12.5,0 C12.91,0 13.25,0.34 13.25,0.75 C13.25,1.16 12.91,1.5 12.5,1.5 Z" id="Path"></path>
            <path d="M13.6504,20.7698 C13.3004,20.7698 12.9804,20.6898 12.6904,20.5198 C12.0304,20.1398 11.6504,19.3698 11.6504,18.4098 L11.6504,16.0998 C11.6504,15.1398 12.0304,14.3698 12.6904,13.9898 C13.3504,13.6098 14.2004,13.6698 15.0304,14.1398 L17.0304,15.2998 C17.8604,15.7798 18.3404,16.4898 18.3404,17.2498 C18.3404,18.0098 17.8604,18.7198 17.0304,19.1998 L15.0304,20.3598 C14.5704,20.6298 14.1004,20.7698 13.6504,20.7698 Z M13.6604,15.2298 C13.5804,15.2298 13.5004,15.2498 13.4404,15.2798 C13.2604,15.3798 13.1504,15.6898 13.1504,16.0898 L13.1504,18.3998 C13.1504,18.7998 13.2604,19.1098 13.4404,19.2098 C13.6204,19.3098 13.9404,19.2598 14.2804,19.0598 L16.2804,17.8998 C16.6304,17.6998 16.8404,17.4498 16.8404,17.2498 C16.8404,17.0498 16.6304,16.7998 16.2804,16.5998 L14.2804,15.4398 C14.0504,15.2998 13.8304,15.2298 13.6604,15.2298 Z" id="Shape"></path>
        </g>
    </g>
</svg>