<?xml version="1.0" encoding="UTF-8"?>
<svg width="32px" height="32px" viewBox="0 0 32 32" version="1.1" xmlns="http://www.w3.org/2000/svg" xmlns:xlink="http://www.w3.org/1999/xlink">
    <title>user copy</title>
    <g id="user-copy" stroke="none" stroke-width="1" fill="none" fill-rule="evenodd">
        <g id="clock.3" transform="translate(5, 5)" fill="#EAEAEA" fill-rule="nonzero">
            <path d="M10.75,21.5 C4.82,21.5 0,16.68 0,10.75 C0,4.82 4.82,0 10.75,0 C16.68,0 21.5,4.82 21.5,10.75 C21.5,16.68 16.68,21.5 10.75,21.5 Z M10.75,1.5 C5.65,1.5 1.5,5.65 1.5,10.75 C1.5,15.85 5.65,20 10.75,20 C15.85,20 20,15.85 20,10.75 C20,5.65 15.85,1.5 10.75,1.5 Z" id="Shape"></path>
            <path d="M14.4596,14.6798 C14.3296,14.6798 14.1996,14.6498 14.0796,14.5698 L10.9796,12.7198 C10.2096,12.2598 9.6396,11.2498 9.6396,10.3598 L9.6396,6.25977 C9.6396,5.84977 9.9796,5.50977 10.3896,5.50977 C10.7996,5.50977 11.1396,5.84977 11.1396,6.25977 L11.1396,10.3598 C11.1396,10.7198 11.4396,11.2498 11.7496,11.4298 L14.8496,13.2798 C15.2096,13.4898 15.3196,13.9498 15.1096,14.3098 C14.9596,14.5498 14.7096,14.6798 14.4596,14.6798 Z" id="Path"></path>
        </g>
        <g id="clock-1.2" transform="translate(14.6406, 10.5098)" fill="#EAEAEA" fill-rule="nonzero">
            <path d="M4.82,9.17003 C4.69,9.17003 4.56,9.14003 4.44,9.06003 L1.34,7.21003 C0.57,6.75003 0,5.74003 0,4.85003 L0,0.75 C0,0.34 0.34,0 0.75,0 C1.16,0 1.5,0.34 1.5,0.75 L1.5,4.85003 C1.5,5.21003 1.8,5.74003 2.11,5.92003 L5.21,7.77003 C5.57,7.98003 5.68,8.44003 5.47,8.80003 C5.32,9.04003 5.07,9.17003 4.82,9.17003 Z" id="Path"></path>
        </g>
    </g>
</svg>