<?xml version="1.0" encoding="UTF-8"?>
<svg width="32px" height="32px" viewBox="0 0 32 32" version="1.1" xmlns="http://www.w3.org/2000/svg" xmlns:xlink="http://www.w3.org/1999/xlink">
    <title>todo</title>
    <g id="todo" stroke="none" stroke-width="1" fill="none" fill-rule="evenodd">
        <g id="pen-add.5" transform="translate(5, 5)" fill="#EAEAEA" fill-rule="nonzero">
            <path d="M17.0012,12.9704 C16.8112,12.9704 16.6112,12.8905 16.4712,12.7505 L10.8012,7.08049 C10.5512,6.83049 10.5112,6.4505 10.7012,6.1505 L12.4712,3.35045 C12.9512,2.58045 13.7012,2.11049 14.5612,2.01049 C15.5112,1.90049 16.5212,2.29048 17.3012,3.07048 L20.4812,6.25048 C21.2312,7.00048 21.6012,8.00048 21.4912,9.0005 C21.3912,9.8705 20.9312,10.6204 20.2112,11.0804 L17.4112,12.8505 C17.2812,12.9305 17.1412,12.9704 17.0012,12.9704 Z M12.2912,6.45049 L17.1112,11.2705 L19.4012,9.8205 C19.7412,9.6105 19.9512,9.2605 19.9912,8.8405 C20.0512,8.3105 19.8312,7.74048 19.4112,7.32048 L16.2312,4.14049 C15.7712,3.68049 15.2212,3.45049 14.7212,3.51049 C14.3212,3.55049 13.9812,3.78045 13.7412,4.16045 L12.2912,6.45049 Z" id="Shape"></path>
            <path d="M5.3791,21.4995 C4.4391,21.4995 3.6091,21.1696 2.9891,20.5496 C2.2691,19.8296 1.9491,18.8195 2.0791,17.6995 L3.0591,9.4195 C3.1091,9.0095 3.4791,8.71954 3.8891,8.7595 C4.2991,8.8095 4.5991,9.1796 4.5491,9.5896 L3.56911,17.8695 C3.48911,18.5195 3.6591,19.0895 4.0491,19.4795 C4.4391,19.8695 5.01909,20.0495 5.67909,19.9695 L14.3991,18.9395 C16.2591,18.7195 16.6691,18.2196 16.4891,16.3996 L16.2491,12.2495 C16.2291,11.8395 16.5391,11.4795 16.9591,11.4595 C17.3691,11.4395 17.7291,11.7496 17.7491,12.1696 L17.9891,16.2896 C18.2491,18.8696 17.2291,20.1195 14.5791,20.4395 L5.8591,21.4695 C5.6991,21.4895 5.5391,21.4995 5.3791,21.4995 Z" id="Path"></path>
            <path d="M11.3301,7.31023 C11.3101,7.31023 11.3001,7.31023 11.2801,7.31023 L9.5301,7.20025 C9.1201,7.17025 8.8001,6.82026 8.8301,6.40026 C8.8601,5.98026 9.2101,5.67025 9.6301,5.70025 L11.3801,5.81023 C11.7901,5.84023 12.1101,6.19022 12.0801,6.61022 C12.0501,7.00022 11.7201,7.31023 11.3301,7.31023 Z" id="Path"></path>
            <path d="M4.0307,20.2801 C3.8407,20.2801 3.6507,20.2102 3.5007,20.0602 C3.2107,19.7702 3.2107,19.2901 3.5007,19.0001 L6.6807,15.82 C6.9707,15.53 7.45071,15.53 7.74071,15.82 C8.03071,16.11 8.03071,16.5901 7.74071,16.8801 L4.5607,20.0602 C4.4107,20.2102 4.2207,20.2801 4.0307,20.2801 Z" id="Path"></path>
            <path d="M5.25,10.5 C4.66,10.5 4.09,10.4 3.56,10.22 C2.4,9.83 1.39999,9.03 0.75999,7.96002 C0.25999,7.14002 0,6.2 0,5.25 C0,3.63 0.72,2.14002 1.98,1.15002 C2.9,0.41002 4.06,0 5.25,0 C8.15,0 10.5,2.36 10.5,5.25 C10.5,5.72 10.43,6.20997 10.3,6.65997 C10.17,7.11997 9.99,7.54002 9.74,7.96002 C9.45,8.44002 9.1,8.85 8.69,9.2 C7.75,10.04 6.53,10.5 5.25,10.5 Z M5.25,1.5 C4.4,1.5 3.57,1.79001 2.91,2.32001 C2.01,3.03001 1.5,4.09 1.5,5.25 C1.5,5.92 1.68999,6.58999 2.03999,7.17999 C2.49999,7.93999 3.20999,8.51998 4.03999,8.79 C5.24999,9.22 6.70001,8.95 7.71001,8.06 C8,7.81 8.25001,7.50999 8.46001,7.17999 C8.64001,6.87999 8.77,6.58 8.86,6.25 C8.95,5.92 9,5.58 9,5.25 C9,3.18 7.32,1.5 5.25,1.5 Z" id="Shape"></path>
            <path d="M5.26953,7.6803 C4.85953,7.6803 4.51953,7.3403 4.51953,6.9303 L4.51953,3.57031 C4.51953,3.16031 4.85953,2.82031 5.26953,2.82031 C5.67953,2.82031 6.01953,3.16031 6.01953,3.57031 L6.01953,6.9303 C6.01953,7.3503 5.67953,7.6803 5.26953,7.6803 Z" id="Path"></path>
            <path d="M6.91078,6 L3.55078,6 C3.14078,6 2.80078,5.66 2.80078,5.25 C2.80078,4.84 3.14078,4.5 3.55078,4.5 L6.91078,4.5 C7.32078,4.5 7.66078,4.84 7.66078,5.25 C7.66078,5.66 7.33078,6 6.91078,6 Z" id="Path"></path>
        </g>
    </g>
</svg>