<?xml version="1.0" encoding="UTF-8"?>
<svg width="32px" height="32px" viewBox="0 0 32 32" version="1.1" xmlns="http://www.w3.org/2000/svg" xmlns:xlink="http://www.w3.org/1999/xlink">
    <title>user</title>
    <g id="user" stroke="none" stroke-width="1" fill="none" fill-rule="evenodd">
        <g id="user-cirlce-add" transform="translate(5, 5)" fill="#EAEAEA" fill-rule="nonzero">
            <path d="M10.2104,14.2299 C8.25039,14.2299 6.65039,12.6299 6.65039,10.6699 C6.65039,8.70986 8.25039,7.10986 10.2104,7.10986 C12.1704,7.10986 13.7704,8.70986 13.7704,10.6699 C13.7704,12.6299 12.1704,14.2299 10.2104,14.2299 Z M10.2104,8.61987 C9.0804,8.61987 8.15039,9.53987 8.15039,10.6799 C8.15039,11.8199 9.0704,12.7399 10.2104,12.7399 C11.3504,12.7399 12.2704,11.8199 12.2704,10.6799 C12.2704,9.53987 11.3504,8.61987 10.2104,8.61987 Z" id="Shape"></path>
            <path d="M15.3995,20.6998 C14.9895,20.6998 14.6495,20.3598 14.6495,19.9498 C14.6495,18.0298 12.6595,16.4697 10.2095,16.4697 C7.75953,16.4697 5.76953,18.0298 5.76953,19.9498 C5.76953,20.3598 5.42953,20.6998 5.01953,20.6998 C4.60953,20.6998 4.26953,20.3598 4.26953,19.9498 C4.26953,17.2098 6.92953,14.9697 10.2095,14.9697 C13.4895,14.9697 16.1495,17.1998 16.1495,19.9498 C16.1495,20.3598 15.8095,20.6998 15.3995,20.6998 Z" id="Path"></path>
            <path d="M10.25,22.5 C4.6,22.5 0,17.9 0,12.25 C0,6.6 4.6,2 10.25,2 C11.64,2 12.98,2.26999 14.24,2.79999 C14.6,2.94999 14.78,3.34997 14.66,3.71997 C14.55,4.04997 14.5,4.4 14.5,4.75 C14.5,5.34 14.66,5.91998 14.97,6.41998 C15.13,6.69998 15.34,6.94997 15.58,7.15997 C16.45,7.94997 17.74,8.20003 18.75,7.84003 C19.12,7.70003 19.54,7.89001 19.69,8.26001 C20.23,9.53001 20.5,10.88 20.5,12.26 C20.5,17.9 15.9,22.5 10.25,22.5 Z M10.25,3.5 C5.43,3.5 1.5,7.42 1.5,12.25 C1.5,17.08 5.43,21 10.25,21 C15.07,21 19,17.08 19,12.25 C19,11.29 18.84,10.34 18.54,9.42999 C17.16,9.66999 15.65,9.24002 14.59,8.27002 C14.24,7.97002 13.93,7.6 13.69,7.19 C13.25,6.47 13.01,5.62 13.01,4.75 C13.01,4.48 13.03,4.22002 13.08,3.96002 C12.17,3.65002 11.22,3.5 10.25,3.5 Z" id="Shape"></path>
            <path d="M17.75,9.5 C16.57,9.5 15.45,9.06002 14.58,8.27002 C14.23,7.97002 13.92,7.6 13.68,7.19 C13.24,6.47 13,5.62 13,4.75 C13,4.24 13.08,3.74001 13.24,3.26001 C13.46,2.58001 13.84,1.95 14.35,1.44 C15.25,0.520002 16.46,0 17.76,0 C19.12,0 20.41,0.580017 21.29,1.58002 C22.07,2.45002 22.51,3.57 22.51,4.75 C22.51,5.13 22.46,5.50999 22.36,5.87 C22.26,6.31999 22.07,6.79001 21.81,7.20001 C21.23,8.18001 20.31,8.91 19.23,9.25 C18.78,9.42 18.28,9.5 17.75,9.5 Z M17.75,1.5 C16.86,1.5 16.03,1.84998 15.42,2.47998 C15.07,2.83998 14.82,3.24997 14.67,3.71997 C14.56,4.04997 14.51,4.4 14.51,4.75 C14.51,5.34 14.67,5.91998 14.98,6.41998 C15.14,6.69998 15.35,6.94997 15.59,7.15997 C16.46,7.94997 17.75,8.20003 18.76,7.84003 C19.52,7.60003 20.14,7.09999 20.54,6.42999 C20.72,6.13999 20.84,5.83002 20.91,5.52002 C20.98,5.26002 21.01,5.01 21.01,4.75 C21.01,3.95 20.71,3.18002 20.17,2.58002 C19.56,1.89002 18.68,1.5 17.75,1.5 Z" id="Shape"></path>
            <path d="M19.24,5.47998 L16.25,5.47998 C15.84,5.47998 15.5,5.13998 15.5,4.72998 C15.5,4.31998 15.84,3.97998 16.25,3.97998 L19.24,3.97998 C19.65,3.97998 19.99,4.31998 19.99,4.72998 C19.99,5.13998 19.66,5.47998 19.24,5.47998 Z" id="Path"></path>
            <path d="M17.75,7.01001 C17.34,7.01001 17,6.67001 17,6.26001 L17,3.27002 C17,2.86002 17.34,2.52002 17.75,2.52002 C18.16,2.52002 18.5,2.86002 18.5,3.27002 L18.5,6.26001 C18.5,6.68001 18.16,7.01001 17.75,7.01001 Z" id="Path"></path>
        </g>
    </g>
</svg>